<svg xmlns="http://www.w3.org/2000/svg" xmlns:xlink="http://www.w3.org/1999/xlink" version="1.1" width="256" height="256" viewBox="0 0 256 256" xml:space="preserve">

<defs>
</defs>
<g style="stroke: none; stroke-width: 0; stroke-dasharray: none; stroke-linecap: butt; stroke-linejoin: miter; stroke-miterlimit: 10; fill: none; fill-rule: nonzero; opacity: 1;" transform="translate(1.4065934065934016 1.4065934065934016) scale(2.81 2.81)" >
	<path d="M 62.599 82.784 h 13.364 c 1.602 0 2.9 -1.298 2.9 -2.9 V 18.075 c 0 -0.769 -0.306 -1.507 -0.849 -2.051 L 62.84 0.849 C 62.296 0.306 61.558 0 60.789 0 H 20.283 c -1.602 0 -2.9 1.298 -2.9 2.9 v 18.662 v 23.234 v 7.612 v 27.475 c 0 1.602 1.298 2.9 2.9 2.9 h 13.044 H 62.599 z" style="stroke: none; stroke-width: 1; stroke-dasharray: none; stroke-linecap: butt; stroke-linejoin: miter; stroke-miterlimit: 10; fill: rgb(220,223,225); fill-rule: nonzero; opacity: 1;" transform=" matrix(1 0 0 1 0 0) " stroke-linecap="round" />
	<path d="M 78.864 16.874 H 64.633 c -1.459 0 -2.642 -1.183 -2.642 -2.642 V 0 L 78.864 16.874 z" style="stroke: none; stroke-width: 1; stroke-dasharray: none; stroke-linecap: butt; stroke-linejoin: miter; stroke-miterlimit: 10; fill: rgb(171,178,184); fill-rule: nonzero; opacity: 1;" transform=" matrix(1 0 0 1 0 0) " stroke-linecap="round" />
	<path d="M 11.136 42.776 c 0 1.116 0.938 2.021 2.096 2.021 h 40.239 c 1.158 0 2.096 -0.905 2.096 -2.021 V 23.583 c 0 -1.116 -0.938 -2.021 -2.096 -2.021 H 13.232 c -1.158 0 -2.096 0.905 -2.096 2.021 V 42.776 z" style="stroke: none; stroke-width: 1; stroke-dasharray: none; stroke-linecap: butt; stroke-linejoin: miter; stroke-miterlimit: 10; fill: rgb(234,84,64); fill-rule: nonzero; opacity: 1;" transform=" matrix(1 0 0 1 0 0) " stroke-linecap="round" />
	<path d="M 60.377 76.061 h -4.652 V 59.482 c 0 -0.757 -0.592 -1.371 -1.322 -1.371 H 41.844 c -0.73 0 -1.322 0.614 -1.322 1.371 v 16.579 H 35.87 c -0.884 0 -1.326 1.068 -0.701 1.693 l 11.745 11.745 c 0.668 0.668 1.751 0.668 2.418 0 l 11.745 -11.745 C 61.703 77.129 61.26 76.061 60.377 76.061 z" style="stroke: none; stroke-width: 1; stroke-dasharray: none; stroke-linecap: butt; stroke-linejoin: miter; stroke-miterlimit: 10; fill: rgb(234,84,64); fill-rule: nonzero; opacity: 1;" transform=" matrix(1 0 0 1 0 0) " stroke-linecap="round" />
	<path d="M 22.088 35.351 h -4.486 c -0.552 0 -1 -0.448 -1 -1 v -7.437 c 0 -0.552 0.448 -1 1 -1 h 4.486 c 1.732 0 3.142 1.41 3.142 3.142 v 3.152 C 25.23 33.941 23.821 35.351 22.088 35.351 z M 18.603 33.351 h 3.486 c 0.63 0 1.142 -0.512 1.142 -1.142 v -3.152 c 0 -0.63 -0.512 -1.142 -1.142 -1.142 h -3.486 V 33.351 z" style="stroke: none; stroke-width: 1; stroke-dasharray: none; stroke-linecap: butt; stroke-linejoin: miter; stroke-miterlimit: 10; fill: rgb(255,255,255); fill-rule: nonzero; opacity: 1;" transform=" matrix(1 0 0 1 0 0) " stroke-linecap="round" />
	<path d="M 17.603 40.443 c -0.552 0 -1 -0.448 -1 -1 v -5.092 c 0 -0.552 0.448 -1 1 -1 s 1 0.448 1 1 v 5.092 C 18.603 39.996 18.155 40.443 17.603 40.443 z" style="stroke: none; stroke-width: 1; stroke-dasharray: none; stroke-linecap: butt; stroke-linejoin: miter; stroke-miterlimit: 10; fill: rgb(255,255,255); fill-rule: nonzero; opacity: 1;" transform=" matrix(1 0 0 1 0 0) " stroke-linecap="round" />
	<path d="M 34.432 40.443 h -4.266 c -0.552 0 -1 -0.448 -1 -1 V 26.915 c 0 -0.552 0.448 -1 1 -1 h 4.266 c 1.854 0 3.362 1.508 3.362 3.362 v 7.804 C 37.794 38.935 36.286 40.443 34.432 40.443 z M 31.166 38.443 h 3.266 c 0.751 0 1.362 -0.611 1.362 -1.362 v -7.804 c 0 -0.751 -0.611 -1.362 -1.362 -1.362 h -3.266 V 38.443 z" style="stroke: none; stroke-width: 1; stroke-dasharray: none; stroke-linecap: butt; stroke-linejoin: miter; stroke-miterlimit: 10; fill: rgb(255,255,255); fill-rule: nonzero; opacity: 1;" transform=" matrix(1 0 0 1 0 0) " stroke-linecap="round" />
	<path d="M 42.958 40.443 c -0.552 0 -1 -0.448 -1 -1 V 26.915 c 0 -0.552 0.448 -1 1 -1 s 1 0.448 1 1 v 12.529 C 43.958 39.996 43.51 40.443 42.958 40.443 z" style="stroke: none; stroke-width: 1; stroke-dasharray: none; stroke-linecap: butt; stroke-linejoin: miter; stroke-miterlimit: 10; fill: rgb(255,255,255); fill-rule: nonzero; opacity: 1;" transform=" matrix(1 0 0 1 0 0) " stroke-linecap="round" />
	<path d="M 49.586 27.915 h -6.628 c -0.552 0 -1 -0.448 -1 -1 s 0.448 -1 1 -1 h 6.628 c 0.553 0 1 0.448 1 1 S 50.139 27.915 49.586 27.915 z" style="stroke: none; stroke-width: 1; stroke-dasharray: none; stroke-linecap: butt; stroke-linejoin: miter; stroke-miterlimit: 10; fill: rgb(255,255,255); fill-rule: nonzero; opacity: 1;" transform=" matrix(1 0 0 1 0 0) " stroke-linecap="round" />
	<path d="M 47.299 34.179 h -4.341 c -0.552 0 -1 -0.448 -1 -1 s 0.448 -1 1 -1 h 4.341 c 0.553 0 1 0.448 1 1 S 47.852 34.179 47.299 34.179 z" style="stroke: none; stroke-width: 1; stroke-dasharray: none; stroke-linecap: butt; stroke-linejoin: miter; stroke-miterlimit: 10; fill: rgb(255,255,255); fill-rule: nonzero; opacity: 1;" transform=" matrix(1 0 0 1 0 0) " stroke-linecap="round" />
</g>
</svg>